<svg aria-hidden="true" style="position: absolute; width: 0; height: 0; overflow: hidden;" version="1.1" xmlns="http://www.w3.org/2000/svg" xmlns:xlink="http://www.w3.org/1999/xlink">
<defs>
<symbol id="icon-coffee4" viewBox="0 0 32 32">
<path fill="#ffebb2" style="fill: var(--color1, #ffebb2)" d="M3.104 2.852l3.652 6.417h13.594v-4.378l-17.246-2.039zM4.848 10.394v1.225h16.065c3 0 5.137 1.831 6.45 4.019 1.188 1.969 1.762 4.231 1.869 5.975h1.256c-0.131-2.050-0.95-4.762-2.325-6.988-1.506-2.431-3.613-4.231-6.125-4.231h-17.19zM5.678 12.744c-0.197 0.294-0.563 0.944-0.929 1.787-0.459 1.056-0.975 2.425-1.456 3.931-0.962 3.019-1.78 6.594-1.78 9.244 0 0.375 0.204 0.819 0.534 1.156 0.329 0.331 0.763 0.538 1.124 0.538h19.992c0.35 0 0.788-0.206 1.119-0.538 0.331-0.337 0.538-0.781 0.538-1.156 0-2.65-0.819-6.225-1.788-9.244-0.481-1.506-1-2.875-1.462-3.931-0.369-0.844-0.738-1.494-0.938-1.787h-14.953zM4.063 21.069h18.162c0.469 1.819 0.8 3.731 0.8 5.269 0 0.863-0.913 1.769-1.825 1.769h-16.135c-0.893 0-1.796-0.906-1.796-1.769 0-1.538 0.328-3.45 0.794-5.269z"></path>
</symbol>
<symbol id="icon-coffee2" viewBox="0 0 32 32">
<path fill="#ffebb2" style="fill: var(--color1, #ffebb2)" d="M25.706 6h0.446c0.237-0 0.467 0.083 0.647 0.237s0.302 0.366 0.341 0.599l0.666 4c0.024 0.143 0.016 0.29-0.022 0.43s-0.107 0.27-0.201 0.381c-0.094 0.111-0.211 0.2-0.342 0.261s-0.275 0.093-0.42 0.093h-1.542l-1.22 17.072c-0.018 0.252-0.131 0.488-0.316 0.66s-0.429 0.268-0.682 0.268h-14.128c-0.253 0.001-0.497-0.095-0.683-0.267s-0.299-0.408-0.317-0.661l-1.216-17.072h-1.536c-0.145-0-0.289-0.032-0.42-0.093s-0.248-0.15-0.342-0.261c-0.094-0.111-0.162-0.241-0.201-0.381s-0.046-0.287-0.022-0.43l0.666-4c0.039-0.234 0.16-0.446 0.341-0.599s0.41-0.237 0.647-0.237h0.438l-0.21-2.928c-0.010-0.137 0.009-0.275 0.054-0.404s0.118-0.248 0.211-0.349c0.094-0.101 0.207-0.181 0.333-0.236s0.262-0.083 0.399-0.083h17.844c0.137-0 0.273 0.028 0.399 0.083s0.239 0.135 0.333 0.236c0.094 0.101 0.165 0.219 0.211 0.349s0.064 0.267 0.054 0.404l-0.21 2.928zM23.702 6l0.142-2h-15.696l0.142 2h15.412zM6.572 10h19.068l-0.334-2h-18.612l-0.334 2h0.212zM8.72 12l1.142 16h12.268l1.142-16h-14.552z"></path>
</symbol>
<symbol id="icon-facebook" viewBox="0 0 32 32">
<path  stroke-linejoin="round" stroke-linecap="round" stroke-miterlimit="4" stroke-width="2" d="M24 2.667h-4c-1.768 0-3.464 0.702-4.714 1.953s-1.953 2.946-1.953 4.714v4h-4v5.333h4v10.667h5.333v-10.667h4l1.333-5.333h-5.333v-4c0-0.354 0.14-0.693 0.391-0.943s0.589-0.391 0.943-0.391h4v-5.333z"></path>
</symbol>
<symbol id="icon-instagram" viewBox="0 0 32 32">
<path fill="none" stroke="#fff" style="stroke: var(--color2, #fff)" stroke-linejoin="round" stroke-linecap="round" stroke-miterlimit="4" stroke-width="2" d="M22.667 2.667h-13.333c-3.682 0-6.667 2.985-6.667 6.667v13.333c0 3.682 2.985 6.667 6.667 6.667h13.333c3.682 0 6.667-2.985 6.667-6.667v-13.333c0-3.682-2.985-6.667-6.667-6.667z"></path>
<path fill="none" stroke="#fff" style="stroke: var(--color2, #fff)" stroke-linejoin="round" stroke-linecap="round" stroke-miterlimit="4" stroke-width="2" d="M21.333 15.16c0.165 1.11-0.025 2.243-0.542 3.239s-1.334 1.803-2.336 2.308c-1.002 0.504-2.138 0.68-3.245 0.502s-2.131-0.701-2.924-1.494c-0.793-0.793-1.316-1.816-1.494-2.924s-0.003-2.243 0.502-3.245c0.504-1.002 1.312-1.82 2.308-2.336s2.129-0.706 3.239-0.542c1.132 0.168 2.18 0.695 2.989 1.504s1.337 1.857 1.504 2.989z"></path>
<path fill="none" stroke="#fff" style="stroke: var(--color2, #fff)" stroke-linejoin="round" stroke-linecap="round" stroke-miterlimit="4" stroke-width="2" d="M23.333 8.667h0.007"></path>
</symbol>
<symbol id="icon-coffee3" viewBox="0 0 32 32">
<path fill="none" stroke="#ffebb2" style="stroke: var(--color1, #ffebb2)" stroke-linejoin="round" stroke-linecap="round" stroke-miterlimit="4" stroke-width="1.7297" d="M22.667 12v12c0 1.061-0.421 2.078-1.172 2.828s-1.768 1.172-2.828 1.172h-8c-1.061 0-2.078-0.421-2.828-1.172s-1.172-1.767-1.172-2.828v-12h16z"></path>
<path fill="none" stroke="#ffebb2" style="stroke: var(--color1, #ffebb2)" stroke-linejoin="round" stroke-linecap="round" stroke-miterlimit="4" stroke-width="1.7297" d="M22.667 18.667h4c0.733 0 1.333-0.6 1.333-1.333v-4c0-0.733-0.6-1.333-1.333-1.333h-4"></path>

</symbol>
<symbol id="icon-mail" viewBox="0 0 32 32">
<path fill="none" stroke="#fff" style="stroke: var(--color2, #fff)" stroke-linejoin="round" stroke-linecap="round" stroke-miterlimit="4" stroke-width="2" d="M5.333 5.333h21.333c1.467 0 2.667 1.2 2.667 2.667v16c0 1.467-1.2 2.667-2.667 2.667h-21.333c-1.467 0-2.667-1.2-2.667-2.667v-16c0-1.467 1.2-2.667 2.667-2.667z"></path>
<path fill="none" stroke="#fff" style="stroke: var(--color2, #fff)" stroke-linejoin="round" stroke-linecap="round" stroke-miterlimit="4" stroke-width="2" d="M29.333 8l-13.333 9.333-13.333-9.333"></path>
</symbol>
<symbol id="icon-telegram" viewBox="0 0 32 32">
<path fill="none" stroke="#fff" style="stroke: var(--color2, #fff)" stroke-linejoin="round" stroke-linecap="round" stroke-miterlimit="4" stroke-width="2" d="M29.333 2.667l-14.667 14.667"></path>
<path fill="none" stroke="#fff" style="stroke: var(--color2, #fff)" stroke-linejoin="round" stroke-linecap="round" stroke-miterlimit="4" stroke-width="2" d="M29.333 2.667l-9.333 26.667-5.333-12-12-5.333 26.667-9.333z"></path>
</symbol>
<symbol id="icon-twitter" viewBox="0 0 32 32">
<path fill="none" stroke="#fff" style="stroke: var(--color2, #fff)" stroke-linejoin="round" stroke-linecap="round" stroke-miterlimit="4" stroke-width="2" d="M30.667 4c-1.277 0.901-2.691 1.589-4.187 2.040-0.803-0.923-1.87-1.578-3.057-1.875s-2.437-0.222-3.58 0.214c-1.143 0.436-2.125 1.213-2.812 2.226s-1.047 2.211-1.031 3.435v1.333c-2.343 0.061-4.665-0.459-6.759-1.513s-3.894-2.609-5.241-4.527c0 0-5.333 12 6.667 17.333-2.746 1.864-6.017 2.799-9.333 2.667 12 6.667 26.667 0 26.667-15.333-0.001-0.371-0.037-0.742-0.107-1.107 1.361-1.342 2.321-3.036 2.773-4.893z"></path>
</symbol>
<symbol id="icon-coffee1" viewBox="0 0 32 32">
<path fill="#ffebb3" style="fill: var(--color3, #ffebb3)" d="M2.211 13.608v8.093c-0 1.063 0.209 2.115 0.615 3.097s1.002 1.874 1.754 2.626c0.751 0.751 1.643 1.348 2.625 1.754s2.034 0.616 3.097 0.616h5.883c1.063 0 2.115-0.209 3.097-0.616s1.874-1.003 2.625-1.754c0.751-0.752 1.347-1.644 1.754-2.626s0.616-2.034 0.615-3.097v-8.091l-22.066-0.002zM19.019 0.256c0.224 0.188 0.365 0.457 0.391 0.749s-0.065 0.582-0.253 0.806c-1.027 1.224-1.254 2.059-0.938 2.619 0.099 0.174 0.949 1.517 1.144 1.931 0.442 0.936 0.499 1.843 0.118 2.915-0.28 0.77-0.686 1.488-1.202 2.125h6.21c0.699 0.026 1.206 0.203 1.52 0.536 0.176 0.182 0.301 0.413 0.379 0.691l0.096-0.003c1.463 0 2.867 0.581 3.901 1.616s1.616 2.438 1.616 3.902-0.581 2.867-1.616 3.902c-1.035 1.035-2.438 1.616-3.901 1.616l-0.186-0.006c-0.454 2.349-1.712 4.467-3.557 5.989s-4.163 2.356-6.555 2.356h-5.886c-1.352 0-2.692-0.266-3.941-0.784s-2.385-1.276-3.341-2.233c-0.956-0.956-1.715-2.092-2.232-3.341s-0.784-2.589-0.783-3.941v-8.362c-0.032-0.693 0.099-1.184 0.39-1.472 0.293-0.288 0.725-0.443 1.294-0.464h4.725c0.062-0.103 0.139-0.194 0.23-0.272 0.976-0.827 1.613-1.691 1.933-2.592 0.182-0.512 0.162-0.816-0.035-1.234-0.125-0.266-0.91-1.507-1.067-1.786-0.862-1.523-0.387-3.27 1.165-5.123 0.091-0.117 0.205-0.214 0.335-0.285s0.272-0.117 0.42-0.132c0.147-0.015 0.296-0.001 0.438 0.042s0.273 0.115 0.387 0.21c0.114 0.095 0.207 0.212 0.274 0.344s0.107 0.276 0.118 0.424c0.011 0.148-0.009 0.296-0.057 0.436s-0.124 0.269-0.223 0.379c-1.027 1.224-1.253 2.059-0.936 2.619 0.098 0.174 0.949 1.517 1.144 1.931 0.44 0.936 0.499 1.843 0.117 2.915-0.28 0.77-0.685 1.488-1.2 2.125h1.373c0.062-0.103 0.139-0.194 0.23-0.272 0.974-0.829 1.611-1.693 1.931-2.594 0.182-0.512 0.163-0.816-0.035-1.234-0.125-0.266-0.91-1.507-1.067-1.786-0.862-1.523-0.387-3.27 1.166-5.123 0.091-0.119 0.204-0.218 0.334-0.292s0.274-0.12 0.422-0.137c0.148-0.017 0.299-0.003 0.442 0.040s0.276 0.115 0.39 0.211c0.114 0.096 0.208 0.214 0.276 0.348s0.107 0.279 0.117 0.428c0.009 0.149-0.011 0.299-0.061 0.439s-0.128 0.27-0.229 0.38c-1.026 1.224-1.253 2.059-0.936 2.619 0.099 0.174 0.949 1.517 1.144 1.931 0.442 0.936 0.499 1.843 0.117 2.915-0.28 0.77-0.685 1.488-1.2 2.125h1.374c0.061-0.102 0.138-0.194 0.229-0.272 0.976-0.829 1.611-1.693 1.931-2.594 0.182-0.512 0.163-0.816-0.035-1.234-0.125-0.266-0.909-1.507-1.067-1.786-0.861-1.523-0.387-3.27 1.166-5.123 0.188-0.224 0.457-0.364 0.748-0.39s0.581 0.065 0.805 0.253v-0.003zM26.483 14.832v6.621c0.878 0 1.72-0.349 2.341-0.97s0.97-1.463 0.97-2.341c0-0.878-0.349-1.72-0.97-2.341s-1.463-0.97-2.341-0.97z"></path>
</symbol>
</defs>
</svg>
